<svg width="120" height="120" viewBox="0 0 120 120" fill="none" xmlns="http://www.w3.org/2000/svg">
<path d="M12 65.1094C12 77.8398 17.0571 90.0488 26.0589 99.0505C35.0606 108.052 47.2696 113.109 60 113.109C72.7304 113.109 84.9394 108.052 93.9411 99.0505C102.943 90.0488 108 77.8398 108 65.1094C108 52.379 102.943 40.17 93.9411 31.1683C84.9394 22.1665 72.7304 17.1094 60 17.1094C47.2696 17.1094 35.0606 22.1665 26.0589 31.1683C17.0571 40.17 12 52.379 12 65.1094Z" fill="#F8F7FA"/>
<path opacity="0.15" d="M73.0257 106.318C73.0257 105.383 67.4673 104.625 60.6105 104.625C53.7537 104.625 48.1953 105.383 48.1953 106.318C48.1953 107.253 53.7537 108.011 60.6105 108.011C67.4673 108.011 73.0257 107.258 73.0257 106.318Z" fill="#1E0A3C"/>
<path d="M32.4004 91.1087C32.4 91.395 32.4928 91.6737 32.6646 91.9027C32.8365 92.1317 33.0782 92.2986 33.3532 92.3783L59.2168 99.9227C59.4747 99.9979 59.7426 100.033 60.0112 100.027V69.0923L32.4004 61.0391V91.1087Z" fill="#F7E5C6"/>
<path d="M53.974 79.3727L60.0112 73.3355V69.0911L32.4004 61.0391V73.0811L53.974 79.3727Z" fill="#F0D5A8"/>
<path d="M60.0112 69.0908L32.4004 61.0376L60.0112 52.9844L87.6208 61.1396L60.0112 69.0908Z" fill="#DEBB7E" stroke="#1E0A3C" stroke-width="0.24" stroke-linecap="round" stroke-linejoin="round"/>
<path d="M60.0112 69.0908L32.4004 61.0376L60.0112 52.9844V69.0908Z" fill="#B89558" stroke="#1E0A3C" stroke-width="0.24" stroke-linecap="round" stroke-linejoin="round"/>
<path d="M60.0107 69.0918V100.027C60.2772 100.021 60.5414 99.9761 60.7943 99.8922L86.7143 91.2522C86.9787 91.1649 87.2086 90.9963 87.3714 90.7704C87.5341 90.5445 87.6212 90.273 87.6203 89.9946V61.1406L60.0107 69.0918Z" fill="#F0D5A8"/>
<path d="M65.9639 79.3722L87.6203 73.0314L87.6215 61.1406L60.0107 69.0906V72.5478L65.9639 79.3722Z" fill="#DEBB7E"/>
<path d="M60.0112 69.0923L32.4004 61.0391V91.1087C32.4 91.395 32.4928 91.6737 32.6646 91.9027C32.8365 92.1317 33.0782 92.2986 33.3532 92.3783L59.2168 99.9215C59.7335 100.072 60.2839 100.062 60.7948 99.8927L86.7148 91.2527C86.9791 91.1654 87.2091 90.9967 87.3718 90.7708C87.5345 90.545 87.6217 90.2734 87.6208 89.9951V61.1411L60.0112 69.0923Z" stroke="#1E0A3C" stroke-width="0.24" stroke-linecap="round" stroke-linejoin="round"/>
<path d="M27.7325 53.5544C27.5067 53.6126 27.3003 53.7297 27.1345 53.8936C26.9686 54.0575 26.8491 54.2624 26.7881 54.4875C26.7271 54.7125 26.7269 54.9498 26.7874 55.175C26.8479 55.4002 26.9669 55.6053 27.1325 55.7696L32.4005 61.04L60.0113 52.9868L52.9649 47.954C52.6497 47.7284 52.2886 47.575 51.9074 47.5047C51.5262 47.4344 51.1342 47.4489 50.7593 47.5472L27.7325 53.5544Z" fill="#DEBB7E" stroke="#1E0A3C" stroke-width="0.24" stroke-linecap="round" stroke-linejoin="round"/>
<path d="M54.2169 74.8871C53.881 75.2231 53.4609 75.4624 53.0006 75.5801C52.5403 75.6977 52.0568 75.6892 51.6009 75.5555L27.6429 68.5667C27.4217 68.5031 27.221 68.3828 27.0607 68.2178C26.9003 68.0527 26.7859 67.8486 26.7288 67.6257C26.6717 67.4028 26.6738 67.1688 26.735 66.947C26.7962 66.7251 26.9144 66.5232 27.0777 66.3611L32.4009 61.0391L60.0117 69.0923L54.2169 74.8871Z" fill="#F0D5A8" stroke="#1E0A3C" stroke-width="0.24" stroke-linecap="round" stroke-linejoin="round"/>
<path d="M60.0107 69.0938V100.029" stroke="#1E0A3C" stroke-width="0.24" stroke-linecap="round" stroke-linejoin="round"/>
<path d="M91.902 53.5699C92.1632 53.6382 92.4016 53.7743 92.5933 53.9644C92.785 54.1545 92.9232 54.3917 92.9938 54.6523C93.0644 54.9128 93.065 55.1874 92.9955 55.4483C92.926 55.7091 92.7889 55.947 92.598 56.1379L87.6 61.1419L60.0156 53.1019L67.4772 47.7727C67.6597 47.6416 67.8688 47.5522 68.0896 47.5108C68.3104 47.4693 68.5376 47.4768 68.7552 47.5327L91.902 53.5699Z" fill="#F0D5A8" stroke="#1E0A3C" stroke-width="0.24" stroke-linecap="round" stroke-linejoin="round"/>
<path d="M48.4996 35C47.4996 36.8333 46.5996 41.6 50.9996 46C56.4996 51.5 56.4995 54 54.4995 59" stroke="#1E0A3C" stroke-width="0.24"/>
<path d="M64.2211 23C65.2211 24.8333 66.1211 29.6 61.7211 34C56.2211 39.5 56.2212 42 58.2212 47" stroke="#1E0A3C" stroke-width="0.24"/>
<path d="M72.2211 35C73.2211 36.8333 74.1211 41.6 69.7211 46C64.2211 51.5 64.2212 54 66.2212 59" stroke="#1E0A3C" stroke-width="0.24"/>
<path d="M66.264 75.4398C66.4585 75.6343 66.7017 75.7729 66.9681 75.8411C67.2346 75.9093 67.5144 75.9045 67.7784 75.8274L92.0052 68.7618C92.2609 68.6874 92.4928 68.5475 92.678 68.3562C92.8632 68.1648 92.9953 67.9284 93.0614 67.6704C93.1274 67.4124 93.125 67.1416 93.0545 66.8848C92.984 66.628 92.8478 66.3939 92.6592 66.2058L87.6 61.1406L60.0156 69.1806L66.264 75.4398Z" fill="#DEBB7E" stroke="#1E0A3C" stroke-width="0.24" stroke-linecap="round" stroke-linejoin="round"/>
</svg>
